<svg width="72" height="58" viewBox="0 0 72 58" fill="none" xmlns="http://www.w3.org/2000/svg">
<path d="M36.3478 48.3377C33.971 46.8078 31.3961 45.6201 28.6232 44.7747C25.8502 43.9292 22.9782 43.5065 20.0072 43.5065C17.9275 43.5065 15.885 43.7279 13.8795 44.1708C11.8741 44.6136 9.9553 45.2377 8.12318 46.0429C7.08332 46.4857 6.08061 46.4656 5.11503 45.9825C4.14945 45.4994 3.66666 44.7948 3.66666 43.8688V14.761C3.66666 14.3182 3.80283 13.8955 4.07517 13.4929C4.34751 13.0903 4.75603 12.7883 5.30071 12.587C7.57849 11.6208 9.9553 10.8961 12.4311 10.413C14.907 9.92987 17.4324 9.68831 20.0072 9.68831C22.8792 9.68831 25.6893 9.99026 28.4375 10.5942C31.1857 11.1981 33.8224 12.1039 36.3478 13.3117V43.8688C38.8732 42.5403 41.5223 41.5438 44.2953 40.8795C47.0682 40.2153 49.8659 39.8831 52.6884 39.8831C54.471 39.8831 56.4145 40.024 58.519 40.3058C60.6235 40.5877 62.6413 41.1714 64.5724 42.0571V11.5604C65.062 11.7114 65.5433 11.8699 66.0166 12.036C66.4898 12.202 66.9493 12.3857 67.3949 12.587C67.8901 12.8286 68.2862 13.1441 68.5833 13.5337C68.8804 13.9234 69.029 14.3325 69.029 14.761V43.8688C69.029 44.7948 68.5462 45.4994 67.5806 45.9825C66.615 46.4656 65.6123 46.4857 64.5724 46.0429C62.7403 45.2377 60.8215 44.6136 58.8161 44.1708C56.8107 43.7279 54.7681 43.5065 52.6884 43.5065C49.7174 43.5065 46.8454 43.9292 44.0724 44.7747C41.2995 45.6201 38.7246 46.8078 36.3478 48.3377ZM40.8043 38.2526V16.9351L60.1159 1.23376V24.6045L40.8043 38.2526ZM31.8913 42.0571V15.5461C30.2077 14.7812 28.2518 14.2175 26.0235 13.8552C23.7953 13.4929 21.7898 13.3117 20.0072 13.3117C17.6799 13.3117 15.5136 13.513 13.5081 13.9156C11.5027 14.3182 9.70772 14.8322 8.12318 15.4575V42.0571C9.85627 41.3727 11.7255 40.8393 13.731 40.4568C15.7364 40.0743 17.8409 39.8831 20.0444 39.8831C22.2479 39.8831 24.34 40.0743 26.3206 40.4568C28.3013 40.8393 30.1582 41.3727 31.8913 42.0571Z" fill="#16ACC9"/>
</svg>
